<svg xmlns="http://www.w3.org/2000/svg" viewBox="0 0 742.68 742.68"><defs><style>.cls-1{fill:#295395;}.cls-2{fill:#fdfdfe;}</style></defs><g id="Layer_2" data-name="Layer 2"><g id="Layer_1-2" data-name="Layer 1"><circle class="cls-1" cx="371.34" cy="371.34" r="371.34"/><path class="cls-2" d="M444.13,374.32H381.65V594.68H289.7V374.38H246.32v-78.3h43.17c0-2,0-3.58,0-5.17.16-18.45-.45-37,.68-55.35,1.48-23.9,9.78-45.25,28.28-61.56a76,76,0,0,1,47-19.25c27.74-1.42,55.57-1.17,83.68-1.64v76.76c-1.31.06-2.73.19-4.16.19-14.24,0-28.49,0-42.74,0-13,0-20.13,6.51-20.42,19.5-.35,15.31-.09,30.64-.09,46.38H451.1C448.76,322.27,446.46,348.11,444.13,374.32Z"/></g></g></svg>