<svg xmlns="http://www.w3.org/2000/svg" viewBox="0 0 813.59 813.59"><defs><style>.cls-1{fill:#fff;}.cls-2{fill:#333;}</style></defs><g id="Layer_2" data-name="Layer 2"><g id="Layer_1-2" data-name="Layer 1"><circle class="cls-1" cx="406.8" cy="406.8" r="353.79"/><path class="cls-2" d="M406.8,0C182.13,0,0,182.13,0,406.8S182.13,813.59,406.8,813.59,813.59,631.46,813.59,406.8,631.46,0,406.8,0Zm89.57,655.51c-14.06,5-23.57-1.59-23.65-16.59q-.18-32.86,0-65.73c.07-16.51-2.32-32.3-13.4-46.56,25.68-4.75,49.33-12,70.16-26.39,30-20.76,44.21-50.34,46.58-85.9,2.15-32.12-3.3-62.42-23.76-88.75-2-2.6-1.51-7.52-1.43-11.35.26-12.4.89-24.78,1.32-37.18a21.21,21.21,0,0,0-.35-4c-2.71-17.26-8.18-21.39-25.33-18-17.54,3.48-32.42,12.9-47.39,22.15a19.52,19.52,0,0,1-12.51,2.43c-39.28-6.83-78.53-7.18-117.72.17-5.31,1-9.09.27-13.43-2.63-15.76-10.54-32-20.23-51.3-22.82-11.83-1.59-17.61,1.1-19.05,12.93-1.82,14.84-1.4,30.06-.81,45.07.26,6.7,0,11.94-4.29,17.8-19.7,26.73-23.75,57.53-20.33,89.5,6,55.9,40.44,86.59,92,101.43,7.69,2.22,15.58,3.75,22,5.29-3.27,9.63-6.33,19.26-9.9,28.69-.78,2.06-3.18,4.48-5.23,4.91-9.22,2-18.53,4-27.91,4.67-14.11,1.06-24.94-6.13-33.64-16.44-7.48-8.87-14-18.54-21.43-27.48-10.21-12.33-29-15-41.33-5.56,2.87,2.18,5.41,4.43,8.24,6.2,14.18,8.91,24,21.09,30.83,36.52a91.71,91.71,0,0,0,16.65,25.5c12.49,13.3,29.05,16.9,46.86,15,8.3-.87,16.58-2,25.48-3,0,16.32.69,32.27-.23,48.12-.66,11.36-11.22,16.28-23.12,11.87C260.6,633.7,214.69,596.66,182.44,543.46,94.38,398.21,166.31,207.65,328.22,156.57,476.69,109.72,633,201.28,665.24,354,692.17,481.6,619.17,612,496.37,655.51Z"/></g></g></svg>