<svg xmlns="http://www.w3.org/2000/svg" viewBox="0 0 807.18 807.18"><defs><style>.cls-1{fill:#fff;}.cls-2{fill:#015782;}</style></defs><g id="Layer_2" data-name="Layer 2"><g id="Layer_1-2" data-name="Layer 1"><circle class="cls-1" cx="403.59" cy="403.59" r="320.29"/><path class="cls-2" d="M403.59,0C180.69,0,0,180.69,0,403.59S180.69,807.18,403.59,807.18s403.59-180.7,403.59-403.59S626.48,0,403.59,0ZM541.12,447a127.91,127.91,0,0,0-2.7-25.75c-3.88-18.16-13.17-32.2-32.8-36-20.17-3.92-37.21,1.77-50.2,18.17-8.35,10.54-11.24,22.62-11.18,35.94.21,49.66.08,99.31.08,149v6.28H352.14V318.08h92.21V356.2C446,354,446.81,353,447.52,352c18.77-27.13,44.78-40.33,77.63-40.67C554.9,311,581.49,319,602.51,341c15.92,16.74,24.29,37.31,27.88,59.76a236.82,236.82,0,0,1,3,35.77c.32,50.66.14,101.32.14,152v6.15H541.24v-6.19C541.24,541.35,541.37,494.19,541.12,447ZM263.85,279.47c-12.49,1.37-24.6.38-35.91-5.59-17.9-9.46-27.33-28.87-24.19-49.57,3-19.56,17.67-34.64,38-38.72,4.54-.91,9.22-1.15,13.83-1.7,25.88.42,44.86,14.31,50.06,37C312.34,250,293.57,276.23,263.85,279.47ZM300.72,318v276.5H208.91V318Z"/></g></g></svg>