<svg xmlns="http://www.w3.org/2000/svg" viewBox="0 0 658.29 658.29"><defs><style>.cls-1{fill:#669;}.cls-2{fill:#fff;}</style></defs><g id="Layer_2" data-name="Layer 2"><g id="Layer_1-2" data-name="Layer 1"><circle class="cls-1" cx="329.14" cy="329.14" r="329.14"/><path class="cls-2" d="M210.25,359.27c31.7,23.16,64.35,45,96.29,67.86,15.7,11.24,30.68,10.61,46-.11,32.46-22.74,65.12-45.19,97.26-68.37,13-9.37,22.74-21.9,22.81-38.89.09-23-.26-46.05-1.62-69a146.86,146.86,0,0,0-6.33-35.31c-21.12-66.54-92.77-112.16-166.14-95-41.69,9.73-72.64,33.29-93.94,70.13-17.4,30.1-19.86,63-18.27,96.63,0,7.09.87,14.3-.16,21.24C182.79,331,193.52,347.05,210.25,359.27Zm36.9-75c.75-18.61-1.81-37.37,6-55.41,15.88-36.55,52.63-57.23,91-50.39,36.84,6.56,65.39,39.78,67.16,78.45.42,9.18-.16,18.41.23,27.61.3,7.16-2.91,9-9.6,8.91-24.43-.3-48.86-.12-73.29-.12v-.07c-24.08,0-48.16-.22-72.23.13C249.5,293.5,246.87,291.21,247.15,284.29Z"/><path class="cls-2" d="M471.52,368.92c-2.72,1.93-4.1,2.92-5.5,3.9C429.41,398.27,393,424,356.1,449.06c-16.79,11.42-34.7,10.75-52.21.95-5.85-3.27-11.38-7.14-16.88-11-33-23.07-66-46.22-100.33-70.28-.38,2.87-.71,4.18-.71,5.48q0,58.49,0,117c0,16.54,9.79,26.24,26.35,26.25q117,0,234,0c17,0,26.28-8.91,26.37-26,.2-37.93.09-75.86,0-113.79C472.68,375.17,472,372.64,471.52,368.92Z"/></g></g></svg>