<svg xmlns="http://www.w3.org/2000/svg" viewBox="0 0 800.09 800.04"><defs><style>.cls-1{fill:#fff;}.cls-2{fill:#fc7f2c;}</style></defs><g id="Layer_2" data-name="Layer 2"><g id="Layer_1-2" data-name="Layer 1"><circle class="cls-1" cx="400.04" cy="400.02" r="313.32"/><path class="cls-2" d="M400.43,0c220.7-.15,402.74,180.16,399.62,406.15-3,216.81-181,397.3-406.92,393.84C176.45,796.67-3.34,618.74.05,393.35,3.31,176.68,179.92-.24,400.43,0ZM529.24,650l-76-131.58c-11,5.87-21.87,7.91-33.46,6-17.26-2.87-31.31-11.94-43.95-23.34-24.19-21.81-41.33-48.61-53.71-78.51-9.12-22-15.45-44.73-14-68.91,1.07-17.71,6.82-33.2,22.26-43.68a7.7,7.7,0,0,0,1.35-1.65c-1.05-2-2-3.89-3.08-5.75q-16.84-29.22-33.71-58.42c-12.07-20.91-24.22-41.77-36.15-62.76-2-3.5-3.66-4-6.93-1.75-4.54,3.08-9.45,5.6-14,8.63-12.73,8.39-24.55,17.75-32.5,31.19-9.59,16.21-11,34-10.13,52.18,1.7,36.94,10.64,72.42,23.4,106.88,30.83,83.24,75.45,158.23,136,223.37,20.72,22.27,43.5,42.23,70,57.54,12.72,7.35,26.18,12.32,41.09,12.53C489.3,672.32,509,661.54,529.24,650ZM319.9,127.83c-1.66.52-4.73,1-7.25,2.36-12.78,7.16-25.51,14.41-38.07,22-8.15,4.91-10.47,14.12-6.26,22.67.8,1.64,1.75,3.21,2.67,4.8q20.19,34.95,40.38,69.9c9.41,16.3,18.74,32.64,28.29,48.85,5.46,9.27,14.9,12,24,7q18.75-10.47,37.21-21.48c8.77-5.22,11.17-14.69,6.28-23.78-2.37-4.4-4.94-8.69-7.44-13q-31.74-54.93-63.45-109.88C332.82,131.28,327.86,128.41,319.9,127.83ZM550.11,646.77c3.36-1.25,6.95-2.08,10-3.81,11.49-6.39,22.8-13.09,34.19-19.65,11-6.31,13.52-15.57,7.22-26.51Q567,536.91,532.43,477c-6.42-11.13-15.32-13.69-26.44-7.41q-17.16,9.7-34.17,19.71c-10.54,6.17-13,15.64-6.84,26.28s12.31,21.32,18.47,32q25.59,44.32,51.17,88.64C538,642.1,542.81,645.76,550.11,646.77Z"/></g></g></svg>